<?xml version="1.0" encoding="utf-8"?>
<!-- Generator: Adobe Illustrator 21.1.0, SVG Export Plug-In . SVG Version: 6.00 Build 0)  -->
<svg version="1.1" id="Layer_1" xmlns="http://www.w3.org/2000/svg" xmlns:xlink="http://www.w3.org/1999/xlink" x="0px" y="0px"
	 viewBox="0 0 196 134.5" style="enable-background:new 0 0 196 134.5;" xml:space="preserve">
<style type="text/css">
	.st0{fill:#FFFFFF;}
	.st1{fill:none;}
</style>
<g>
	<path class="st0" d="M131.3,9l-12.1,46.1c-4.6-17.6-8.9-33.5-9.6-36.1c-1.9-6.8-6.3-10-13-10c-7.2,0-12.4,0-12.4,0h-0.1L72,55.1
		L59.9,9l-27.2,3.2c0,0,15,56.9,17.7,67.3c1.7,6.6,5.3,11.1,11.9,12.9c6.9,1.9,21.1,6.1,21.1,6.1l12.2-46.2
		c3.7,14,6.5,24.3,7.6,28.4c1.7,6,5.6,9.9,12.5,11.9c9.3,2.7,20.1,5.9,20.1,5.9l22.7-86.4L131.3,9z"/>
	<g>
		<path class="st0" d="M109.8,118.4c-4.3,0-6.8,2.2-7.8,5.1c-0.8-3.5-4.1-5.1-7.5-5.1c-4.3,0-7.5,2.5-8.3,6.5v-12h-5.8v21.6h5.8
			v-5.9c0.7,4.2,3.9,6.3,8.1,6.3c3.6,0,6.6-1.8,7.7-5c1,2.9,3.6,5,7.8,5c5.8,0,8.4-3.9,8.4-8.3S115.6,118.4,109.8,118.4z
			 M101.8,128.3h-4.9c-0.2,1.3-0.9,2.3-2.4,2.3c-1.9,0-2.5-1.4-2.5-4c0-1.9,0.5-4,2.7-4c1.4,0,2.2,0.9,2.2,2.5h4.9
			c-0.1,0.5-0.1,1-0.1,1.5C101.7,127.2,101.7,127.7,101.8,128.3z M109.8,130.6c-2.3,0-2.6-2.3-2.6-4c0-1.7,0.3-4,2.6-4
			s2.6,2.3,2.6,4C112.4,128.3,112.1,130.6,109.8,130.6z"/>
		<path class="st0" d="M151.8,131.1c-1.9,0-2.9-1.3-3.1-3.2H160c0-6.1-2.7-9.6-8.6-9.6c-4.1,0-7,2.5-7.9,6v-0.7
			c0-2.5-1.3-5.3-5.2-5.3c-2.3,0-3.7,0.8-4.5,1.6c-0.1,0.1-0.2,0.2-0.2,0.3c-0.3,0.3-0.4,0.5-0.6,0.6c-0.7-1.6-2.5-2.5-4.1-2.5
			c-2.1,0-3.8,0.7-5,2.5h-0.1v-2.1h-5.6v7.8v0.1v7.8h5.8v-8.5c0-1.7,0.5-2.9,2-2.9c1.9,0,2,1.4,2,2.9v8.5h5.8v-8.5
			c0-1.7,0.5-2.9,2-2.9c1.8,0,2,1.4,2,2.9v8.5h5.8V129c1,3.7,4.1,5.8,8.2,5.8c3.5,0,6.7-1.5,7.9-4.9h-5.4
			C153.8,130.7,152.7,131.1,151.8,131.1z M151.7,122.1c1.7,0,2.8,1.2,2.8,2.8h-5.8C149.1,123.1,150.1,122.1,151.7,122.1z"/>
		<path class="st0" d="M73,123.5c-1.1-3.3-3.6-5.1-7.9-5.1c-3.4,0-6,1.7-7.3,4.3l1.2-3.9h-6l-2.2,9.8h-0.1l-2.1-9.8h-5.4l-2,9.8
			h-0.1l-2.3-9.8h-6l4.8,15.7h5.9l2.3-9.7h0.1l2.2,9.7H54l2.8-9.1c-0.1,0.4-0.1,0.8-0.1,1.3c0,5.2,3.6,8.2,8.5,8.2
			c3.4,0,6.4-1.4,7.8-4.4v4h5.8v-21.6H73V123.5z M65.3,122.1c1.7,0,2.8,1.2,2.8,2.8h-5.8C62.6,123.1,63.6,122.1,65.3,122.1z
			 M73.1,130h-5.2c-0.5,0.8-1.6,1.1-2.5,1.1c-1.9,0-2.9-1.3-3.1-3.2h10.8V130z"/>
	</g>
</g>
<rect x="7.2" y="9" class="st1" width="178.3" height="125.9"/>
<text transform="matrix(1 0 0 1 689.5 362.9)" style="font-family:'MyriadPro-Regular'; font-size:12px;">width=&quot;50px&quot;</text>
</svg>
